<?xml version="1.0" encoding="utf-8"?>
<!-- Generator: Adobe Illustrator 25.0.0, SVG Export Plug-In . SVG Version: 6.00 Build 0)  -->
<svg version="1.1" xmlns="http://www.w3.org/2000/svg" xmlns:xlink="http://www.w3.org/1999/xlink" x="0px" y="0px"
	 viewBox="0 0 500 500" style="enable-background:new 0 0 500 500;" xml:space="preserve">
<style type="text/css">
	.st0{display:none;}
	.st1{fill:#FFFFFF;}
	.st2{fill:#3F2305;}
</style>
<g id="Calque_1" class="st0">
	
		<image style="display:inline;overflow:visible;" width="1600" height="900" xlink:href="brj0rt.jpg"  transform="matrix(1.8886 0 0 1.8886 -1328.9091 -524.5728)">
	</image>
</g>
<g id="Calque_2">
	<g id="XMLID_2_">
		<g>
			<path class="st1" d="M268.6,335.9c0,1.2,0.5,2.3,1.4,3.1c0.8,0.8,2,1.2,3.1,1.1c2.9-0.2,5.4-1.3,7.6-3c4-3.2,5.4-8.9,3.5-13.8
				c-1.6-4.2-4.3-7-8.1-8.8c-9.8-7.6-24.4-16.1-39.9-5.2c-6,3-10.3,6.2-13.1,9.8c-2.4,3.1-3.2,7-2.2,10.8c1,3.7,3.6,6.6,7.1,8
				c1.6,0.6,3.4,1.2,5.4,1.6c1.6,0.3,3.2-0.3,4.1-1.6c0.9-1.3,1-3,0.2-4.4c-1.6-2.6-1.7-4.1-1.4-4.4c0.1-0.1,0.2-0.2,0.5-0.1
				c0.2,0,0.6,0.2,0.7,0.6c1,2.8,1.1,7.1,1.2,11c0,1.4,0.1,2.8,0.1,4.1c0.3,4.4,3.5,8.1,7.7,8.6c1.7,0.2,3.4,0,5.1-0.9
				c0.6-0.3,1.3-0.3,2.1,0c1.4,0.6,3,0.9,4.6,0.9c1,0,2-0.1,3-0.3c4.8-0.9,8.1-5.7,7.3-10.6c-0.1-0.9-0.3-1.8-0.5-2.7
				c-0.6-3.2-1.2-6.5-0.7-8.7l0-0.2c0-0.1,0-0.3,0.1-0.4C268.1,331.4,268.6,333.2,268.6,335.9z M281.7,375.7
				c0.6-1.3-0.1-2.8-1.4-3.3c-7.8-3.1-16-4.9-24.4-5.3c-2.1-0.1-8.5-0.3-16.7,1.1c-5.2,0.9-9.8,2.2-13.8,3.7c-1.4,0.5-2,2.1-1.4,3.4
				l0.1,0.2c0.6,1.2,1.9,1.7,3.1,1.3c9.1-3.5,18.9-5.2,28.5-4.8c7.8,0.4,15.5,2,22.8,5C279.7,377.5,281.1,376.9,281.7,375.7z
				 M355.6,228.7c0-11.4-7.3-13.7-19.2-10.2C345.9,220.2,352.3,223.6,355.6,228.7z M168.7,244.6c-5.8,1.6-9,8.7-10.3,22.2
				c-0.3,3.2,0.1,6.5,1.2,9.5c2.1,5.9,5.5,9.2,10.2,10c0.6,0.1,1.3,0.1,1.9,0.1c11,0,22.4-14.2,23.7-15.9c1.5-1.9,1.5-4.5,0-6.5
				C183.8,248.9,175.4,242.7,168.7,244.6z M172.9,220.3c-11.9-3.4-19.3-1.2-19.2,10.2C157,225.5,163.4,222.1,172.9,220.3z
				 M345.7,246.1c-9.2-7.2-16.7-9.6-22.8-7.1c-3.6,1.4-6.5,4.3-8.9,8.8c-2.4,4.5-4.2,10.6-5.4,18.4c-0.6,3.5,1.2,7,4.3,8.6
				c6,3.1,11.4,4.6,16,4.6c3.2,0,6.1-0.7,8.6-2.1c6.5-3.6,10.3-11.8,11.2-24.1C349,250.5,347.9,247.8,345.7,246.1z M429.4,191.6
				c0.2,3.2-0.2,6.7-1.8,6.9l-3.8,0.5l1.9,3.3c19.4,33.5,6.2,67.9-8.3,90.9c-14.6,23.2-38.2,46.6-64.5,64
				c-24.6,16.3-48.2,25.3-63.1,24.1l-1-0.1l-0.8,0.7c-23.8,20.9-42.8,22-65.5,3.9l-0.5-0.4l-0.6-0.1
				c-62.8-13.3-117.7-49.2-139.9-91.6c-13.7-26.2-14.9-53.2-3.6-80.4l0.3-0.7l-0.1-0.7c-9.6-49.6,3.3-81.6,40.5-100.7
				c2.6-1.2,5.2-1.8,7.8-1.8c9.7,0,19.4,8.5,29.6,25.7l1,1.7l1.9-0.6c74.8-23.3,124-13.1,168.1-0.6l3.2,0.9v-3.3
				c0-2.2,4.9-9.4,14.2-17.1c9.5-7.8,18.9-12.2,24-11.2l0.2,0.1h0.2c0,0,0,0,0,0C396.5,104.9,427.9,168.6,429.4,191.6z"/>
			<path class="st2" d="M348.8,253.2c-0.9,12.3-4.7,20.5-11.2,24.1c-2.5,1.4-5.4,2.1-8.6,2.1c-4.7,0-10-1.5-16-4.6
				c-3.2-1.6-4.9-5.1-4.3-8.6c1.2-7.8,3-13.9,5.4-18.4c2.4-4.5,5.3-7.4,8.9-8.8c6.1-2.4,13.6-0.1,22.8,7.1
				C347.9,247.8,349,250.5,348.8,253.2z M342.6,250.1c-7.6-6-13.6-8.1-17.9-6.4c-1.8,0.7-3.5,2.2-5,4.3c-0.3-0.1-0.6-0.1-0.9-0.1
				c-2.1,0-3.7,1.7-3.7,3.7c0,1.2,0.6,2.3,1.5,3v0c-1.2,3.4-2.2,7.5-3,12.4c-0.2,1.4,0.4,2.8,1.7,3.4c5.8,3,14,5.9,19.9,2.6
				c1.3-0.7,2.4-1.7,3.4-2.9h0c0.3,0.1,0.6,0.1,0.8,0.1c1.4,0,2.4-1.1,2.4-2.4c0-0.7-0.3-1.4-0.8-1.8c1.5-3.4,2.4-7.8,2.8-13.1
				C343.9,251.7,343.5,250.7,342.6,250.1z"/>
			<path class="st2" d="M172.9,220.3c-9.5,1.8-15.9,5.2-19.2,10.2C153.6,219.2,160.9,216.9,172.9,220.3z"/>
			<path class="st1" d="M338.6,270c-0.9-0.4-1.6-1.2-1.6-2.3c0-1.4,1.1-2.4,2.4-2.4c0.6,0,1.2,0.2,1.6,0.6
				C340.3,267.5,339.5,268.9,338.6,270L338.6,270z"/>
			<path class="st2" d="M182.9,276.1c-4.4,3.5-9,5.8-12.4,5.2c-2.7-0.4-4.8-2.6-6.2-6.8c-0.6-1.8-1-3.7-1-5.7c0-0.5,0-1.1,0.1-1.6
				c0.2-2.6,0.5-4.8,0.9-6.7c0.7,0.8,1.7,1.2,2.8,1.2c2.1,0,3.8-1.7,3.8-3.8s-1.7-3.7-3.8-3.7c-0.4,0-0.8,0.1-1.1,0.2
				c1.4-3.6,3-4.8,4.1-5.1c0.3-0.1,0.6-0.1,1-0.1c2.9,0,9,2.9,20.3,17.8c0.1,0.1,0.1,0.3,0,0.3c-1.5,1.9-3.1,3.7-4.8,5.4
				c-0.4-0.5-1.1-0.9-1.9-0.9c-1.3,0-2.4,1.1-2.4,2.4C182.3,275.1,182.5,275.7,182.9,276.1z"/>
			<path class="st2" d="M280.3,372.4c1.3,0.5,2,2,1.4,3.3c-0.5,1.2-2,1.8-3.2,1.3c-7.3-2.9-15-4.6-22.8-5
				c-9.6-0.4-19.4,1.2-28.5,4.8c-1.2,0.5-2.6-0.1-3.1-1.3l-0.1-0.2c-0.6-1.3,0-2.9,1.4-3.4c4-1.5,8.7-2.8,13.8-3.7
				c8.2-1.4,14.6-1.2,16.7-1.1C264.3,367.4,272.5,369.2,280.3,372.4z"/>
			<path class="st1" d="M165.9,254.5c-0.6,1.5-1.2,3.5-1.6,6.1c-0.6-0.7-1-1.5-1-2.5C163.3,256.4,164.4,255,165.9,254.5z"/>
			<path class="st1" d="M184.7,276.8c-0.7,0-1.3-0.3-1.8-0.7c1.2-1,2.5-2.1,3.6-3.2c0.3,0.4,0.6,1,0.6,1.5
				C187.1,275.7,186,276.8,184.7,276.8z"/>
			<path class="st2" d="M336.4,218.4c12-3.4,19.3-1.1,19.2,10.2C352.3,223.6,345.9,220.2,336.4,218.4z"/>
			<path class="st1" d="M318.8,247.9c0.3,0,0.6,0,0.9,0.1c-1.2,1.7-2.2,3.9-3.2,6.6c-0.9-0.7-1.5-1.8-1.5-3
				C315.1,249.5,316.7,247.9,318.8,247.9z"/>
			<path class="st1" d="M167,261.9c-1.1,0-2.1-0.5-2.8-1.2c0.5-2.6,1-4.5,1.6-6.1c0,0,0,0,0,0c0.4-0.1,0.7-0.2,1.1-0.2
				c2.1,0,3.8,1.7,3.8,3.7S169.1,261.9,167,261.9z"/>
			<path class="st1" d="M182.9,276.1c-0.4-0.4-0.7-1-0.7-1.7c0-1.3,1.1-2.4,2.4-2.4c0.8,0,1.4,0.3,1.9,0.9c0,0,0,0,0,0
				C185.4,274,184.2,275.1,182.9,276.1z"/>
			<path class="st1" d="M322.5,251.6c0,2.1-1.7,3.8-3.8,3.8c-0.9,0-1.6-0.3-2.3-0.8v0c0.9-2.7,2-4.9,3.2-6.6
				C321.3,248.4,322.5,249.8,322.5,251.6z"/>
			<path class="st2" d="M338.6,270c-1,1.2-2.1,2.2-3.4,2.9c-5.9,3.3-14.1,0.4-19.9-2.6c-1.2-0.6-1.9-2-1.7-3.4c0.8-4.9,1.8-9,3-12.4
				c0.6,0.5,1.4,0.8,2.3,0.8c2.1,0,3.8-1.7,3.8-3.8c0-1.8-1.2-3.2-2.8-3.6c1.5-2.2,3.1-3.6,5-4.3c4.3-1.7,10.4,0.5,17.9,6.4
				c0.8,0.7,1.3,1.7,1.2,2.7c-0.4,5.3-1.3,9.7-2.8,13.1c-0.4-0.4-1-0.6-1.6-0.6c-1.3,0-2.4,1.1-2.4,2.4
				C337,268.8,337.6,269.7,338.6,270z"/>
			<path class="st2" d="M191.4,267.1c-11.3-14.9-17.4-17.8-20.3-17.8c-0.4,0-0.8,0-1,0.1c-1.1,0.3-2.7,1.5-4.1,5.1c0,0,0,0,0,0
				c-1.5,0.5-2.6,1.9-2.6,3.6c0,1,0.4,1.9,1,2.5c-0.4,1.9-0.7,4.1-0.9,6.7c-0.1,0.5-0.1,1.1-0.1,1.6c0,2,0.3,3.9,1,5.7
				c1.5,4.1,3.5,6.3,6.2,6.8c3.5,0.5,8-1.7,12.4-5.2c0.5,0.5,1.1,0.7,1.8,0.7c1.4,0,2.4-1.1,2.4-2.4c0-0.6-0.2-1.1-0.6-1.5
				c0,0,0,0,0,0c1.7-1.7,3.4-3.5,4.8-5.4C191.5,267.4,191.5,267.2,191.4,267.1z M169.7,286.3c-4.6-0.8-8-4.1-10.2-10
				c-1.1-3-1.5-6.2-1.2-9.5c1.2-13.5,4.5-20.5,10.3-22.2c6.7-1.9,15.2,4.3,26.7,19.4c1.5,1.9,1.4,4.6,0,6.5
				c-1.3,1.7-12.8,15.8-23.7,15.9C171,286.4,170.4,286.4,169.7,286.3z"/>
			<path class="st1" d="M339.4,270.2c-0.3,0-0.6-0.1-0.8-0.1c0.9-1.2,1.8-2.5,2.5-4.1c0.5,0.5,0.8,1.1,0.8,1.8
				C341.9,269.1,340.8,270.2,339.4,270.2z"/>
			<path class="st2" d="M434.3,191.3c0.4,6.2-1.1,9.3-3,10.8c14.8,27.7,11.5,60-9.8,93.7c-31.7,50.3-96.1,90.6-129.3,90.6
				c-0.6,0-1.2,0-1.9-0.1c-13.2,11.4-25.5,17-37.8,17c-10.9,0-21.7-4.5-32.9-13.4C155.8,376.4,99.8,339.5,77,296
				c-14.1-26.9-15.5-55.9-4-83.9c-9.7-51,4.5-85.5,43.3-105.4c14.5-6.9,28.9,1.3,42.9,24.1c73.6-22.5,122.8-13,166.6-0.8
				c2.2-5.6,9.2-12.7,15.4-17.8c5.2-4.3,18.3-14,27.9-12.3c18.5,0.1,35.4,22.8,43.8,36.4C424.6,155.3,433.5,178,434.3,191.3z
				 M427.6,198.5c1.6-0.2,2-3.7,1.8-6.9c-1.5-23-32.9-86.8-60.6-86.8c0,0,0,0,0,0h-0.2l-0.2-0.1c-5.1-1-14.5,3.4-24,11.2
				c-9.3,7.7-14.2,14.8-14.2,17.1v3.3l-3.2-0.9c-44.1-12.4-93.3-22.7-168.1,0.6l-1.9,0.6l-1-1.7c-10.2-17.2-19.9-25.7-29.6-25.7
				c-2.6,0-5.2,0.6-7.8,1.8C81.3,130.2,68.4,162.2,78,211.9l0.1,0.7l-0.3,0.7c-11.4,27.2-10.2,54.2,3.6,80.4
				c22.2,42.4,77.2,78.4,139.9,91.6l0.6,0.1l0.5,0.4c22.7,18.2,41.7,17.1,65.5-3.9l0.8-0.7l1,0.1c14.9,1.2,38.5-7.8,63.1-24.1
				c26.4-17.5,49.9-40.8,64.5-64c14.5-23,27.7-57.4,8.3-90.9l-1.9-3.3L427.6,198.5z"/>
			<path class="st2" d="M284.2,323.2c1.9,4.9,0.5,10.5-3.5,13.8c-2.2,1.8-4.8,2.8-7.6,3c-1.1,0.1-2.2-0.3-3.1-1.1
				c-0.9-0.8-1.4-1.9-1.4-3.1c0-2.6-0.5-4.5-1.1-5.6c0,0.1,0,0.2-0.1,0.4l0,0.2c-0.5,2.2,0.1,5.5,0.7,8.7c0.2,0.9,0.3,1.8,0.5,2.7
				c0.8,4.9-2.5,9.7-7.3,10.6c-1.1,0.2-2.1,0.3-3,0.3c-1.7,0-3.2-0.3-4.6-0.9c-0.7-0.3-1.5-0.3-2.1,0c-1.6,0.8-3.3,1.1-5.1,0.9
				c-4.2-0.6-7.4-4.2-7.7-8.6c-0.1-1.3-0.1-2.6-0.1-4.1c-0.1-3.8-0.2-8.2-1.2-11c-0.1-0.4-0.5-0.6-0.7-0.6c-0.3-0.1-0.5,0.1-0.5,0.1
				c-0.3,0.3-0.1,1.7,1.4,4.4c0.8,1.4,0.7,3.1-0.2,4.4c-0.9,1.3-2.5,1.9-4.1,1.6c-2-0.4-3.8-1-5.4-1.6c-3.5-1.4-6.1-4.3-7.1-8
				c-1-3.8-0.2-7.7,2.2-10.8c2.8-3.6,7.1-6.8,13.1-9.8c15.5-10.9,30.1-2.3,39.9,5.2C279.9,316.2,282.6,319.1,284.2,323.2z
				 M277.6,333.1c2.3-1.9,3.1-5.1,2-8c-1.2-3-3-5-5.7-6.2l-0.3-0.1l-0.2-0.2c-14-10.8-24.2-12.4-34.3-5.2l-0.3,0.2
				c-5.4,2.7-9.2,5.5-11.6,8.5c-1.4,1.8-1.9,4.2-1.3,6.4c0.6,2.1,2.1,3.8,4.1,4.6c0.7,0.3,1.6,0.6,2.5,0.8c-1.7-3.6-1.6-6.4,0.3-8.4
				c1.3-1.4,3.3-2,5.2-1.6c2,0.4,3.7,1.9,4.4,3.8c1.3,3.5,1.4,8.3,1.5,12.6c0,1.4,0.1,2.7,0.1,3.9c0.1,2,1.6,3.7,3.4,4
				c0.7,0.1,1.4,0,2.1-0.4c1-0.5,2.1-0.7,3.2-0.7c1.1,0,2.1,0.2,3.1,0.7c1.3,0.6,2.8,0.7,4.7,0.3c2.1-0.4,3.7-2.7,3.3-4.9
				c-0.1-0.8-0.3-1.7-0.5-2.6c-0.7-3.7-1.4-7.4-0.7-10.6c0.7-5.5,3.9-5.7,4.9-5.6c3.4,0.2,5.9,4.7,6.2,10.6
				C275.1,334.7,276.4,334.1,277.6,333.1z"/>
			<path class="st2" d="M279.5,325.1c1.1,2.9,0.3,6.2-2,8c-1.2,1-2.5,1.6-4,1.8c-0.2-5.9-2.8-10.4-6.2-10.6c-1-0.1-4.2,0.2-4.9,5.6
				c-0.7,3.1,0,6.9,0.7,10.6c0.2,0.9,0.3,1.8,0.5,2.6c0.4,2.2-1.1,4.5-3.3,4.9c-1.8,0.4-3.4,0.3-4.7-0.3c-1-0.5-2.1-0.7-3.1-0.7
				c-1.1,0-2.2,0.2-3.2,0.7c-0.7,0.4-1.4,0.5-2.1,0.4c-1.8-0.3-3.3-1.9-3.4-4c-0.1-1.2-0.1-2.5-0.1-3.9c-0.1-4.2-0.2-9-1.5-12.6
				c-0.7-1.9-2.4-3.4-4.4-3.8c-1.9-0.4-3.9,0.2-5.2,1.6c-1.9,2-2,4.8-0.3,8.4c-0.9-0.2-1.7-0.5-2.5-0.8c-2-0.8-3.6-2.5-4.1-4.6
				c-0.6-2.2-0.1-4.5,1.3-6.4c2.4-3,6.1-5.8,11.6-8.5l0.3-0.2c10.1-7.2,20.4-5.7,34.3,5.2l0.2,0.2l0.3,0.1
				C276.5,320.1,278.4,322.1,279.5,325.1z"/>
		</g>
		<g>
		</g>
	</g>
</g>
</svg>
