<?xml version="1.0" encoding="UTF-8"?>
<svg xmlns="http://www.w3.org/2000/svg" xmlns:xlink="http://www.w3.org/1999/xlink" id="Groupe_73" data-name="Groupe 73" width="1259.077" height="650.662" viewBox="0 0 1259.077 650.662">
  <defs>
    <clipPath id="clip-path">
      <rect id="Rectangle_41" data-name="Rectangle 41" width="1259.077" height="650.662" fill="none"></rect>
    </clipPath>
    <filter id="dropshadow" height="130%">
      <feGaussianBlur in="SourceAlpha" stdDeviation="3"/> <!-- stdDeviation est l'épaisseur du flou -->
      <feOffset dx="2" dy="2" result="offsetblur"/> <!-- dx et dy définissent le décalage de l'ombre -->
      <feMerge>
        <feMergeNode/> <!-- C'est ici que l'ombre se combine avec le graphique source -->
        <feMergeNode in="SourceGraphic"/> <!-- SourceGraphic représente l'élément SVG auquel le filtre est appliqué -->
      </feMerge>
    </filter>
  </defs>
  <g id="Groupe_72" data-name="Groupe 72" fill="#FAEAB1" filter="url(#dropshadow)" clip-path="url(#clip-path)">
    <path id="Tracé_201" data-name="Tracé 201" d="M782.41,517.46A491.456,491.456,0,0,1,818.4,469.779a208.884,208.884,0,0,0-51.2,12.754,236.5,236.5,0,0,0-48.713,26.836,214.216,214.216,0,0,0-25.974,23.854c-12.24,13.072-22.991,27.9-28.887,44.861-3.758,11.493-7.973,25.6-.349,36.362,2.525,3.956,5.019,7.069,10.12,6.543,3.284-.135,6.211-1.427,9.217-2.581,5.7-2.31,11.309-4.922,16.789-7.588-6.755-6.651-14.219-14.416-14.61-24.43-.146-9.289,3.231-19.379,11.267-24.661a11.365,11.365,0,0,1,5.227-2.127c2.553-.263,8.33.253,6.882,4.07a1.172,1.172,0,0,1-1.6.565c-.838-.561-.734-1.864-1.684-2.359-2.511-1.174-6.816,1.018-9.005,2.348-4.132,3.658-6.255,9.117-7.468,14.344-2.487,11.845,4.607,23.358,12.74,31.356,12.334-6.986,23.3-16.259,33-26.5,4.942-5.618,9.324-11.69,13.868-17.62,7.1-9.376,14.554-18.742,21.205-28.405,4.471-6.6,8.78-13.294,13.179-19.937m73.651-34.4c.249-8.434-8.6-11.686-15.521-12.989a49.367,49.367,0,0,0-14.71-.914c-9.414,10.076-17.82,21.187-25.832,32.278-12.75,18.118-22.919,38.013-37.258,55.006-3.568,4.389-7.125,8.794-10.918,12.992a225.281,225.281,0,0,1-19.2,21.617A179.623,179.623,0,0,1,704.38,612.6c5.757,4.312,12.6,6.841,19.324,9.275a95.98,95.98,0,0,0,38.353,5.539,71.392,71.392,0,0,0,17.4-2.629,126.069,126.069,0,0,0,26.046-12.8c8.316-5.84,16.927-11.839,22.694-20.328,5.469-7.555,10.893-15.23,13.308-24.329a62.786,62.786,0,0,0,2.15-25.742c-1.406-10.637-9.854-19.085-19.877-22.136a36.279,36.279,0,0,0-9.8-2.214,55.965,55.965,0,0,0-5.6-.173c-.672.1-1.465-.426-1.223-1.171.495-1.094,2.026-.865,3.013-1.132a81.727,81.727,0,0,0,11.846-2.726c9.259-2.792,18.122-7.3,25.06-14.107,4.055-4.2,8.146-8.933,8.988-14.87m-9.882-13.484c9.851,3.259,15.545,8.718,11.912,19.59-3.89,8.975-12.813,15.421-21.035,20.232a77.975,77.975,0,0,1-7.936,3.765c-2.8,1.2-5.888,1.126-8.79,1.9,11.132,2.888,22.68,11.821,27.339,22.4,6.941,18.063-1.351,40.459-12.57,55.12-16.082,21.426-52.707,39.368-79.5,38.8a135.119,135.119,0,0,1-26.635-4.6c-9.626-2.411-19.023-6.425-26.469-13.072q-3.69,2.115-7.534,3.956c-8.209,3.619-17.387,7.63-26.486,5.718-5.93-2.074-10.485-7.883-11.565-14.014a39.066,39.066,0,0,1,.079-9.476c.208-.721.042-2.338.451-3.194.041-.4.086-.814.141-1.219a92.565,92.565,0,0,1,8.808-28.575c11.185-22.76,29.5-41.283,48.855-57.3a232.938,232.938,0,0,1,51.886-28.953,209.178,209.178,0,0,1,52.987-12.826,113.559,113.559,0,0,1,20.834-18.8c-2.795.575-5.6,1.091-8.42,1.573-11.2,1.9-22.684,3.148-33.965,4.1-15.794,1.576-31.436,4.385-47.223,6-11.178,1.275-22.434,1.912-33.539,3.731-17.107,3.335-34.443,8.441-48.571,18.9-7.945,5.9-16.137,13.034-19.424,22.621a17.928,17.928,0,0,0-.682,8.372c.09,1.206,1.669,2.591.627,3.689-1,.7-1.985-.582-2.584-1.275-2.342-3.159-2.57-7.592-1.417-11.26,3.464-8.51,9.563-15.885,16.543-21.78,12.33-9.178,26.881-14.793,41.567-18.97,7.142-2.13,14.315-4.264,21.72-5.268,10.384-1.493,20.879-1.843,31.347-2.335,14.966-.755,29.8-3.6,44.681-4.894,14.873-1.652,30.1-2.362,44.456-6.844,2.809-.88,5.625-1.794,8.5-2.452a1.754,1.754,0,0,1,1.206.007c1.787,1.534-1.7,2.272-2.584,2.895A141.465,141.465,0,0,0,827.88,467a54.941,54.941,0,0,1,7.025.35,39.846,39.846,0,0,1,11.274,2.227"></path>
    <path id="Tracé_202" data-name="Tracé 202" d="M877.006,539.79c.914-.838,1.586-2.192,1.066-3.294a1.626,1.626,0,0,0-.263-.308.937.937,0,0,1-.3.3,2.988,2.988,0,0,0-.505,3.3m51.632,3.429c2.6-1.032,5.265-2.948,5.847-5.843-2.615,1.094-4.229,3.651-5.847,5.843m183.349-65.373c-1.333-4.908,8.358-.107,4.659,10.11-1.542,5.5-6.5,8.926-11.521,11.022-7.623,3.706-16.137,4.426-24.467,5.078-9.767.8-19.549,1.243-29.3,1.111-12.2-.277-24.4-.568-36.6-.706-2.273-.035-4.548-.236-6.792-.492q-.91,1.168-1.791,2.359c-7.246,10.574-14,21.554-20.328,32.707-6.141,11.565-13.176,22.884-16.907,35.53-1.08,3.873-.408,7.8-.54,11.711.132,1.992-1.666,2.951-2.764.859-5.389-10.381-.575-22.3,4.5-31.814,1.9-3.529,3.658-7.107,5.5-10.64-1.209.648-2.435,1.274-3.655,1.9q-7.72,3.944-15.621,7.541l-.09.041c-2.3,1.074-5.1,2.338-8.1,3.523q-2.1.883-4.222,1.728c-5.393,2.012-11.136,4.718-17.01,3.488-7.125-2.12-9.712-12.483-5.673-18.357-10.319,6.619-19.573,15.1-30.758,20.29-4.624,1.863-9.649,4.447-14.748,3.415-6.861-2.071-2.584-10.623-1.011-15.192.6-1.922,3.058-6.207,1.78-7.89-.6-.537-1.309-.841-1.922-1.358-2.56-2.057-3.3-6.612-.575-8.78,2.407-2.151,6.584-.613,5.964,2.864a6.386,6.386,0,0,1-1.832,3.27c2.109,1.164,5.185,1.86,5.351,4.738-.239,6.488-5.441,11.9-6.362,18.275,6.182,1.957,23.009-10.353,28.994-13.754,4.773-2.983,9.608-5.851,14.575-8.5,3.969-1.867,7.087-4.991,10.716-7.36,2.241-1.7,6.554-1.593,7.084,1.711a7.2,7.2,0,0,1-1.86,5.5c-2.366,3.044-5.989,4.665-9.325,6.307-1.524,1.514-1.52,3.858-1.856,5.85-.139,1.451-.374,3.256.893,4.306,4.753,4.156,14.652-.039,19.934-1.795q1.331-.488,2.646-1.015c2.258-.969,4.5-1.967,6.737-2.951l1.313-.613a.341.341,0,0,0,.058-.027c6.966-3.364,13.706-7.222,20.543-10.838.478-.859.963-1.715,1.466-2.563,3.3-5.116,6.806-10.09,10.155-15.171,4.693-6.882,9.193-13.955,14.173-20.63-15.811-.512-35.391.527-43.843,15.763-.381.977-1.6,1.583-2.078.3.44-5.168,5.068-8.867,9.089-11.561,6.418-3.734,13.955-5.269,21.267-5.906a104.3,104.3,0,0,1,16.9-.367q.93-1.217,1.888-2.407c8.08-9.737,16.514-19.29,25.423-28.25,1.6-1.569,15-14.527,13.706-8.344-5.3,6.12-10.987,12.012-16.477,17.952-6.488,7.011-13.107,13.938-19.116,21.368,2.321.162,4.641.339,6.962.512,14.987.509,29.995,1.209,44.993.568a120.543,120.543,0,0,0,38.762-6.449c4.96-1.746,10.751-4.285,12.621-9.567.793-2.947-.658-5.673-1.5-8.413"></path>
    <path id="Tracé_203" data-name="Tracé 203" d="M1018.024,552.253a.328.328,0,0,0,.046-.018c-.357.07-.718.128-1.078.173a4.7,4.7,0,0,0,1.032-.155m15.067-12.231c-9.837-4.817-22.392,10.662-16.314,10.675,6.6-1.053,12.051-5.832,16.314-10.675m38.312,54.3a284.985,284.985,0,0,0,19.421-31c-11,4.613-21.444,10.342-31.894,16.026-12.064,6.6-24.4,12.771-35.786,20.519a177.189,177.189,0,0,0-15.178,11.922c-5.327,4.5-10.384,9.158-14.256,14.945-2.546,4-4.465,8.67-4.337,13.408.1,6.436,7.713,7.558,12.808,7.153,18.684-1.268,34.239-12.909,46.906-25.8,4.831-4.9,9.552-9.951,13.91-15.267,2.989-3.835,5.58-7.956,8.406-11.912m28.333-54.94c-4.347-3.3-12.6-.077-16.578,2.642-2.566,1.871-5.011,4.115-6.175,7.1-.669,1.8-.152,2.874,1.877,2.819,8.039-1.943,14.346-7.831,20.876-12.559m108.859,4.177c3.034-.54,6.383-2.948,7.118-6.017-3.26.468-5.733,3.412-7.385,5.986a2.358,2.358,0,0,0,.267.031m49.215-2.217a.886.886,0,0,1,.762,1.6c-8.566,4.257-17.176,8.413-25.621,12.895-5.933,2.768-11.412,7.042-18.056,7.915-6.165.793-13.058-1.683-13.809-8.625-.153-3.075,1.493-5.677,2.788-8.274-5.092,2.965-10.163,5.992-15.226,9.016-6.595,3.865-14.018,8.319-21.88,8.181-10.294-1.86-6.415-9.089-3.37-15.663-4.067.6-7.669,2.868-11.264,4.721a27.2,27.2,0,0,0-6.224,4.306c-1.4,1.312-2.615,2.836-4.084,4.083-.54.426-1.348.88-2.009.419-2.736-2.459,7.551-14.939,9.535-18.288-.374.062-.744.128-1.115.211-7.578,1.573-14.578,4.385-21.8,6.907-10.3,3.419-20.321,7.606-30.678,10.876-4.838,8.541-9.421,17.235-14.641,25.551a288.694,288.694,0,0,1-22.7,30.612c-6.55,7.149-13.28,14.333-21.173,20-11.084,7.862-24.526,13.338-38.281,12.843-5.746-.114-11.579-3.931-12.846-9.737-.755-8.011,5.275-14.626,9.837-20.574,6.317-7.824,14.18-14.155,22.3-20.013a302.724,302.724,0,0,1,74.1-39.569c4.89-7.831,9.944-15.555,14.588-23.542-8.766,5.666-16.5,12.933-25.755,17.789-2.726,1.317-6.934,2.179-8.853-.834-1.188-2.418-.291-5.029,1.028-7.343-6.525,4.319-12.715,9.14-19.05,13.733-5.933,3.911-12.867,9.771-20.3,9.452-10.481-1.333-8.583-13.948-6.145-21.256-3.81,2.369-7.925,6.325-12.736,5.168-3.834-1.157-5.057-5.937-3.491-9.335,3.661-7.862,14.9-12.084,22.2-6.688a4.849,4.849,0,0,0,.911.582,4.127,4.127,0,0,0,1.4-.963c1.264-1.448,4.163-1.656,4.039.849a11.284,11.284,0,0,1-2.016,4.142c-3.8,5.466-10.367,15.51-7.1,22.181,4.1,8.753,23.5-7.523,28.409-10.89,3.013-2.178,11.6-9.428,16.4-11.1.34-.447.738-.86,1.012-1.223a24.512,24.512,0,0,1,9.667-6.876c4.794-1.714,12.5-2.909,15.091,2.716a53.022,53.022,0,0,1,11.281-8.337c1.652-.724,2.761.575,2.165,2.189-4.621,9.944-12.331,18.149-17.727,27.671,6.633-2.508,13.422-4.375,20.006-6.962,10.166-4.2,20.4-8.967,31.381-10.519.485,0,1.337-.128,2.172-.152,1.479-1.749,3.079-3.4,4.606-5.109,1.576-1.517,4.212-5.3,6.616-4.735,1.409.914.059,2.757-.388,3.89a66.588,66.588,0,0,1-8.039,12.694c3.858-1.812,11.9-7.2,13.809-.526.4,3.993-3.107,7.02-3.529,10.837.249,5.445,7.613,2.536,10.657,1.42,6.46-2.795,12.234-6.508,18.295-9.978,2.969-1.861,6.19-3.44,8.923-5.625,1.628-1.76,2.688-3.925,4.222-5.743,2.681-3.582,8.015-7.184,12.341-4.278,3.443,2.944.516,7.852-2.158,10.256a18.979,18.979,0,0,1-5.774,3.339c-1.174.523-2.615.565-3.211,1.784-1.683,4.641-1.118,10.9,5.089,10.789,6.317-.111,12.015-3.089,17.685-5.469,7.253-2.92,13.851-7.163,20.99-10.318,2.268-.984,4.509-2.04,6.754-3.076"></path>
    <path id="Tracé_204" data-name="Tracé 204" d="M189.83,477.223c.879-3.093,1.793-6.187,2.793-9.25-1.75,2.657-3.575,5.262-5.438,7.84q-1.055,1.466-2.137,2.9,2.086.166,4.168.34a.826.826,0,0,0,.1.008Zm13.144,55.555c12.231-16.9,25.5-33.09,40.711-47.413-16.387-.88-32.719-2.259-49.051-3.8-1.117,3.391-2.226,6.781-3.293,10.188-1.839,5.847-3.66,11.707-5.277,17.621-.066.234-.129.469-.16.579s-.063.229-.086.315c-1.52,5.645-2.719,11.368-4.07,17.051-1.246,5.231-2.465,10.469-3.711,15.7-.629,2.637-1.258,5.278-1.867,7.918-.684,2.965-1.321,5.938-1.942,8.914q-.9,4.284-1.781,8.571c-.609,2.949-1.211,5.9-1.746,8.859-.528,2.93-1.008,5.863-1.414,8.8l-.008.078c-.4,2.949-.731,5.906-.961,8.875,8.727-22.148,20.945-42.82,34.656-62.254m154.4-60.055c7.273-3.945,15.179-12.418,10.586-21.062-5.055-7.649-15.246-10.227-23.868-10.835a77.48,77.48,0,0,0-29.851,4.222c-24.535,7.8-46.9,21.36-65.871,38.671,11.59.911,23.328,2.146,34.926,2.4a221.094,221.094,0,0,0,28.4-2.032,236.624,236.624,0,0,0,31.187-5.664,54.784,54.784,0,0,0,14.489-5.7m10.7-24.363c11.414,15.091-9.371,28.207-22.414,31.375a263.949,263.949,0,0,1-61.66,8.38c-12.571-.181-25.086-1.61-37.617-2.548-16.3,15.211-30.43,32.418-43.313,50.555-14.769,21.265-27.75,43.984-36.164,68.527-.551,1.539-1,3.117-1.633,4.621a2.025,2.025,0,0,1-1.633,1.465c-.875.02-1.32-.844-1.449-1.6-.9-11.778,1.4-23.621,3.778-35.129,2.023-9.262,4.16-18.5,6.5-27.692,2.981-12.371,5.266-24.9,8.766-37.148,2.656-9.367,5.059-18.735,7.543-28.133-.66-.059-1.32-.113-1.98-.168q-1.595-.129-3.184-.254c-6.047,7.875-12.691,15.254-19.4,22.559a4.56,4.56,0,0,1-1.621,1.762q-1.987,2.149-3.965,4.3c-10.184,11.035-20.45,22.008-31.192,32.5C109.31,559.606,89.1,575.2,68.7,590.372c-14.567,9.988-29.832,20.961-47.817,23.133-6.14.8-12.32,1.148-18.5,1.468-.89.032-2.254.34-2.386-.882a1.009,1.009,0,0,1,.937-1.059c6.27-.277,12.547-.664,18.781-1.387,17.25-1.8,31.762-12.015,45.735-21.406,18.937-13.9,37.629-28.273,54.769-44.371,9.742-9.16,19-18.754,28.125-28.508,4.68-5.077,9.422-10.109,14.1-15.2.715-.934,1.43-1.875,2.16-2.8,2.707-3.372,5.824-6.688,8.352-10.125q3.269-4.436,6.453-8.931c-21.871-1.441-43.965-1.679-65.539,2.517-26.969,5.292-64.614,19.132-62.821,52.276.852,7.817,5.637,14.653,12.106,18.891a1.1,1.1,0,0,1,.808,1.367c-1.027,2.285-5-2.254-6.113-3.055a27.118,27.118,0,0,1-8.4-14.613C46.627,522.645,55.447,507.809,67.3,499.1c11.5-8.593,25.442-13.3,39.254-16.7,24.242-5.914,49.461-5.684,74.215-4,3.6-5.074,7.18-10.168,10.84-15.2,1.254-1.989,2.523-3.961,3.789-5.943,1.1-1.722,2.2-3.445,3.344-5.136.847-1.246,1.726-2.481,2.679-3.653a4.513,4.513,0,0,1,1.422-1.351,1.252,1.252,0,0,1,.957-.074,1.369,1.369,0,0,1,.75.679,2.637,2.637,0,0,1,.18,1.383,17.571,17.571,0,0,1-.719,3.641c-.371,1.34-.808,2.657-1.242,3.972-1.91,5.829-3.781,11.672-5.7,17.5q-.891,2.7-1.789,5.4c16.793,1.608,33.516,2.929,50.371,3.893,22-20.449,48.836-36.07,78.113-43.2,14.785-2.629,32.914-3.375,44.3,8.055"></path>
    <path id="Tracé_205" data-name="Tracé 205" d="M358.456,473.019c-.592-1.567,1.8-1.778,2.661-2.551,4.711-2.865,8.91-8.187,9.863-13.609.524-5.41-4.556-9.2-8.706-11.521.014.008.028.016.043.023l.028.016a24.744,24.744,0,0,0-7.136-2.708,1.006,1.006,0,0,1-.9-1.037c.231-2.392,5.855.619,7.164,1.059,5.67,2.717,12.485,7.7,11.433,14.8-1.251,6.029-5.553,11.46-10.738,14.672-1.077.457-2.747,2.221-3.715.855"></path>
    <path id="Tracé_206" data-name="Tracé 206" d="M390.582,523.341a1,1,0,1,1,1.02.98,1.008,1.008,0,0,1-1.02-.98"></path>
    <path id="Tracé_207" data-name="Tracé 207" d="M392.521,525.256c-3.955-.285-2.12-5.858,1.286-4.571,2.566,1.027,1.52,5.185-1.286,4.571"></path>
    <path id="Tracé_208" data-name="Tracé 208" d="M260.114,539.813a8.771,8.771,0,0,0-4.316-1.054,15.356,15.356,0,0,0-7.574,2.269c-1.61.934-7.87,6.633-3.547,7.321,6.074-.727,10.758-5.032,15.437-8.536m174.141,2.477c.008,1.1-1.437,1.02-2.1,1.336-6.867,2.527-13.488,5.7-20.23,8.523-6.891,2.9-13.461,6.348-20.3,9.321-3.238,1.328-6.715,2.816-10.285,2.382-7.035-1.515-7.348-10.582-5.723-16.234a65.908,65.908,0,0,1-20.953,10.559c-4.644,1.183-9.5,2.914-14.336,2.168-8.277-2.192-1.957-12.871-1.351-18.211-4.629,1.133-8.219,4.57-11.828,7.453-1.922,1.5-3.5,3.445-5.649,4.562-1.762.664-2.461-1.23-2.133-2.66.278-3.359,2.008-6.679,1.52-10.062a4.57,4.57,0,0,0-2.3.64,77.129,77.129,0,0,0-8.422,5.317c-4.988,3.519-9.769,7.332-14.8,10.793-.875.672-2.55.7-2.718-.664a5.564,5.564,0,0,1,.648-2.629,84.816,84.816,0,0,1,4.508-8.317c-9.723,6.559-24.61,21.692-36.727,21-9.715-1.011-8.773-12.668-5.488-19.312-3.371,2.207-6.984,4.426-11.074,4.273-5.2-.336-7.2-5.246-4.918-9.617,4.148-7.691,15.961-12.031,23.144-5.969h0c.988-1.14,1.942-2.558,3.543-2.832a1.61,1.61,0,0,1,1.977,1.469,4.4,4.4,0,0,1-.754,2.484c-1.711,2.883-3.848,5.555-5.727,8.313-2.812,3.988-5.117,8.43-4.765,13.348.109,2.355.875,5.3,3.523,5.738,9.824,1.6,25.168-12.492,32.926-18.215,1.051-.645,4.3-3.6,6.215-3.848,3.289-4.214,5.633-9.152,9.242-13.148,1.191-1.18,2.664-3.481,4.594-2.7,1.093.633.582,1.988.2,2.89-2.2,4.637-5.2,8.856-7.449,13.481,6.05-4.383,21.726-14.168,19.625.844,3.847-2.977,7.843-6.356,12.836-6.856,2.562-.387,5.672.949,5.554,3.906-.121,3.317-1.617,6.247-2.293,9.446-.8,3.375-1.89,6.8,3.051,6.258,7.852-1.368,14.985-5.059,21.723-9.09a67.229,67.229,0,0,0,16.777-14.442c1.059-1.129,1.844-3.09,3.606-3.113a1.543,1.543,0,0,1,1.257,1.672c-.113,1.941-1.273,3.875-2.015,5.57-1.348,3.164-2.641,6.364-3.844,9.586-1.187,3.883-2.8,9.281.566,12.379,1.9.9,4.161.285,6.149,0a.889.889,0,0,1,.453.027c3.512-1.379,6.887-3.156,10.219-4.687,6.219-3.008,12.574-5.723,18.922-8.453,4.789-1.9,9.4-4.45,14.414-5.688a1.011,1.011,0,0,1,.988,1.008"></path>
    <path id="Tracé_209" data-name="Tracé 209" d="M499.525,536.564c-1.535.16-2.684,1.867-3.625,2.871a24.477,24.477,0,0,0-2.5,3.68c2.828-1.059,6.09-3.246,6.129-6.551m94.531,4.426a1,1,0,0,1-.137,1.406c-5.609,4.227-11.793,7.559-17.843,11.082-5.977,3.2-11.954,7.879-18.95,8.117-8.1-.8-9.133-8.175-4.633-13.9a7.467,7.467,0,0,0,.485-.883,32.7,32.7,0,0,0-11.535,5c-3.008,2.242-5.071,5.281-8.035,7.535-.942.723-2.485,1.715-3.563.668-1.484-1.883.481-4.351,1.379-6.093,2.184-3.559,4.586-6.985,6.961-10.422-.84.4-1.7.761-2.57,1.093q-3.61,1.554-7.2,3.153c-5,2.652-9.847,5.6-14.793,8.351-7.515,4.375-17.836,8.2-25.468,2.067-7.809-6.746-1.422-20.864,6.886-24.25,4.336-2.188,11.184-.75,7.6,5.164-2.442,3.793-6.664,5.945-10.735,7.617-4.6,17.336,12.3,10.32,21.727,5.629,4.469-2.082,8.938-4.153,13.438-6.168l0,0a125.82,125.82,0,0,1,12.3-5.617c.164-.063.344-.133.528-.188.488-.281.964-.574,1.421-.886a27.88,27.88,0,0,0,5.907-6.4c.945-1.172,1.816-2.6,3.265-3.183a1.217,1.217,0,0,1,1.473.722c.539,1.586-.672,3.106-1.41,4.418-2.656,4.063-5.164,8.235-7.949,12.215,3.453-1.707,13.488-8.641,14.843-1.793.86,4.2-6.246,9.313-1.75,12.484a.084.084,0,0,1,.024.016,7.778,7.778,0,0,0,5.719.582,17.188,17.188,0,0,0,2.777-.848c1.148-.542,2.25-1.121,3.262-1.613,6.816-3.836,13.632-7.691,20.281-11.812,1.715-1.149,3.293-2.231,4.875-3.4a1.018,1.018,0,0,1,1.41.137"></path>
  </g>
</svg>
